<svg width="86" height="12" viewBox="0 0 86 12" fill="none" xmlns="http://www.w3.org/2000/svg">
<path d="M1.37316 4.295C2.07316 3.545 3.01316 3.17 4.19316 3.17C5.37316 3.17 6.30816 3.545 6.99816 4.295C7.69816 5.035 8.04816 5.995 8.04816 7.175C8.04816 8.365 7.69816 9.335 6.99816 10.085C6.30816 10.825 5.37316 11.195 4.19316 11.195C3.01316 11.195 2.07316 10.825 1.37316 10.085C0.683164 9.335 0.338164 8.365 0.338164 7.175C0.338164 5.995 0.683164 5.035 1.37316 4.295ZM2.58816 9.02C2.95816 9.51 3.49316 9.755 4.19316 9.755C4.89316 9.755 5.42816 9.51 5.79816 9.02C6.16816 8.52 6.35316 7.905 6.35316 7.175C6.35316 6.455 6.16816 5.85 5.79816 5.36C5.42816 4.86 4.89316 4.61 4.19316 4.61C3.49316 4.61 2.95816 4.86 2.58816 5.36C2.21816 5.85 2.03316 6.455 2.03316 7.175C2.03316 7.905 2.21816 8.52 2.58816 9.02ZM9.07695 4.805V3.365H15.917V4.805H13.352V11H11.657V4.805H9.07695ZM23.9105 7.4C22.9505 7.4 22.1455 7.08 21.4955 6.44C20.8555 5.79 20.5355 4.96 20.5355 3.95C20.5355 2.92 20.8705 2.055 21.5405 1.355C22.2205 0.645 23.1255 0.289999 24.2555 0.289999C25.4955 0.289999 26.4755 0.704999 27.1955 1.535C27.9155 2.365 28.2755 3.685 28.2755 5.495C28.2755 6.605 28.1305 7.58 27.8405 8.42C27.5605 9.25 27.1055 9.92 26.4755 10.43C25.8455 10.94 25.0705 11.195 24.1505 11.195C23.2505 11.195 22.5005 10.95 21.9005 10.46C21.3005 9.96 20.9405 9.325 20.8205 8.555H22.5455C22.7855 9.325 23.3305 9.71 24.1805 9.71C24.9005 9.71 25.4705 9.435 25.8905 8.885C26.3105 8.335 26.5455 7.535 26.5955 6.485H26.2355C25.6755 7.095 24.9005 7.4 23.9105 7.4ZM25.7405 2.36C25.3605 1.98 24.8755 1.79 24.2855 1.79C23.6955 1.79 23.2155 1.975 22.8455 2.345C22.4755 2.705 22.2905 3.22 22.2905 3.89C22.2905 4.56 22.4755 5.07 22.8455 5.42C23.2155 5.77 23.7005 5.945 24.3005 5.945C24.8905 5.945 25.3705 5.77 25.7405 5.42C26.1205 5.06 26.3105 4.555 26.3105 3.905C26.3105 3.245 26.1205 2.73 25.7405 2.36ZM30.9365 1.655C31.6665 0.744999 32.6315 0.289999 33.8315 0.289999C35.0315 0.289999 35.9965 0.744999 36.7265 1.655C37.4565 2.565 37.8215 3.93 37.8215 5.75C37.8215 7.57 37.4565 8.935 36.7265 9.845C35.9965 10.745 35.0315 11.195 33.8315 11.195C32.6315 11.195 31.6665 10.745 30.9365 9.845C30.2065 8.935 29.8415 7.57 29.8415 5.75C29.8415 3.93 30.2065 2.565 30.9365 1.655ZM32.1215 8.57C32.4715 9.28 33.0415 9.635 33.8315 9.635C34.6215 9.635 35.1915 9.28 35.5415 8.57C35.8915 7.86 36.0665 6.92 36.0665 5.75C36.0665 3.15 35.3215 1.85 33.8315 1.85C32.3415 1.85 31.5965 3.15 31.5965 5.75C31.5965 6.92 31.7715 7.86 32.1215 8.57ZM44.6475 1.655C45.3775 0.744999 46.3425 0.289999 47.5425 0.289999C48.7425 0.289999 49.7075 0.744999 50.4375 1.655C51.1675 2.565 51.5325 3.93 51.5325 5.75C51.5325 7.57 51.1675 8.935 50.4375 9.845C49.7075 10.745 48.7425 11.195 47.5425 11.195C46.3425 11.195 45.3775 10.745 44.6475 9.845C43.9175 8.935 43.5525 7.57 43.5525 5.75C43.5525 3.93 43.9175 2.565 44.6475 1.655ZM45.8325 8.57C46.1825 9.28 46.7525 9.635 47.5425 9.635C48.3325 9.635 48.9025 9.28 49.2525 8.57C49.6025 7.86 49.7775 6.92 49.7775 5.75C49.7775 3.15 49.0325 1.85 47.5425 1.85C46.0525 1.85 45.3075 3.15 45.3075 5.75C45.3075 6.92 45.4825 7.86 45.8325 8.57ZM54.1836 1.655C54.9136 0.744999 55.8786 0.289999 57.0786 0.289999C58.2786 0.289999 59.2436 0.744999 59.9736 1.655C60.7036 2.565 61.0686 3.93 61.0686 5.75C61.0686 7.57 60.7036 8.935 59.9736 9.845C59.2436 10.745 58.2786 11.195 57.0786 11.195C55.8786 11.195 54.9136 10.745 54.1836 9.845C53.4536 8.935 53.0886 7.57 53.0886 5.75C53.0886 3.93 53.4536 2.565 54.1836 1.655ZM55.3686 8.57C55.7186 9.28 56.2886 9.635 57.0786 9.635C57.8686 9.635 58.4386 9.28 58.7886 8.57C59.1386 7.86 59.3136 6.92 59.3136 5.75C59.3136 3.15 58.5686 1.85 57.0786 1.85C55.5886 1.85 54.8436 3.15 54.8436 5.75C54.8436 6.92 55.0186 7.86 55.3686 8.57ZM63.7197 1.655C64.4497 0.744999 65.4147 0.289999 66.6147 0.289999C67.8147 0.289999 68.7797 0.744999 69.5097 1.655C70.2397 2.565 70.6047 3.93 70.6047 5.75C70.6047 7.57 70.2397 8.935 69.5097 9.845C68.7797 10.745 67.8147 11.195 66.6147 11.195C65.4147 11.195 64.4497 10.745 63.7197 9.845C62.9897 8.935 62.6247 7.57 62.6247 5.75C62.6247 3.93 62.9897 2.565 63.7197 1.655ZM64.9047 8.57C65.2547 9.28 65.8247 9.635 66.6147 9.635C67.4047 9.635 67.9747 9.28 68.3247 8.57C68.6747 7.86 68.8497 6.92 68.8497 5.75C68.8497 3.15 68.1047 1.85 66.6147 1.85C65.1247 1.85 64.3797 3.15 64.3797 5.75C64.3797 6.92 64.5547 7.86 64.9047 8.57ZM76.0957 6.935V5.435H77.5207V0.499999H81.6157C82.7757 0.499999 83.6707 0.779999 84.3007 1.34C84.9307 1.89 85.2457 2.675 85.2457 3.695C85.2457 4.715 84.9307 5.51 84.3007 6.08C83.6707 6.65 82.7757 6.935 81.6157 6.935H79.2607V7.94H82.3957V8.885H79.2607V11H77.5207V8.885H76.0957V7.94H77.5207V6.935H76.0957ZM79.2607 5.435H81.3607C82.7907 5.435 83.5057 4.855 83.5057 3.695C83.5057 2.555 82.7907 1.985 81.3607 1.985H79.2607V5.435Z" fill="#222222"/>
</svg>
